<svg xmlns="http://www.w3.org/2000/svg" width="1754" height="328" viewBox="0 0 1754 328">
  <defs>
    <style>
      .cls-1 {
        fill: #fff;
        fill-rule: evenodd;
      }
    </style>
  </defs>
  <path id="eye" class="cls-1" d="M223.359,44.057v88.652H103.419V44.057H26.827q2.6,63.234,2.607,118.311t-2.607,118.31h76.592V192.027h119.94v88.651h76.592q-2.285-55.075-2.281-118.31t2.281-118.311H223.359ZM459,283.938h0ZM816.867,163.02q33.566-9.45,47.422-24.934t13.852-35.362q0-19.556-9.615-32.267T835.608,51.065q-23.307-6.676-63.719-6.681H702.468V44.057H625.875q2.605,63.234,2.608,118.311t-2.608,118.31H772.541q46.277,0,72.355-8.637t36.178-24.118q10.1-15.477,10.1-37.644,0-47.254-74.311-47.259h0ZM765.045,103.7q19.556,0,27.867,3.1t8.311,10.592q0,9.457-7.986,13.037t-28.192,3.585H702.468V103.7h62.577ZM702.468,221.034V188.116h62.577q24.115,0,33.407,3.748t9.289,12.222q0,6.523-3.911,10.267t-12.874,5.215q-8.969,1.465-25.911,1.466H702.468ZM1108.24,163.02q33.57-9.45,47.43-24.934,13.845-15.476,13.85-35.362,0-19.556-9.62-32.267t-32.92-19.392q-23.3-6.676-63.71-6.681H993.844V44.057H917.252q2.6,63.234,2.607,118.311t-2.607,118.31H1063.92q46.275,0,72.35-8.637t36.18-24.118q10.1-15.477,10.1-37.644,0-47.254-74.31-47.259h0ZM1056.42,103.7q19.56,0,27.87,3.1t8.31,10.592q0,9.457-7.99,13.037t-28.19,3.585H993.844V103.7h62.576ZM993.844,221.034V188.116h62.576q24.12,0,33.41,3.748t9.29,12.222q0,6.523-3.91,10.267t-12.88,5.215q-8.97,1.465-25.91,1.466H993.844ZM1288.15,44.057h-79.52q2.595,63.234,2.61,118.311,0,55.083-2.61,118.31H1438.4q0-21.831.98-37.155a173.867,173.867,0,0,1,5.22-31.941q-61.935,2.613-156.45,3.26V44.057Zm259.44,143.081q15.645-.321,46.28-0.326,51.825,0,107.23,1.956V132.709q-55.41,1.954-107.23,1.955-30.645,0-46.28-.326V103.05h176.32V44.057H1470.67q2.61,63.234,2.61,118.311t-2.61,118.31h253.24q0-21.51.49-35.688a206.49,206.49,0,0,1,2.77-27.541q-55.725,2.934-179.58,3.585v-33.9ZM460.056,302.921A138.92,138.92,0,1,1,599,164,138.934,138.934,0,0,1,460.056,302.921Zm0-59.64a109.1,109.1,0,1,1,109.122-109.1A109.111,109.111,0,0,1,460.056,243.281Zm0-.119a83.008,83.008,0,1,1,83.024-83.008A83.017,83.017,0,0,1,460.056,243.162Z"/>
</svg>
